<svg width="17" height="17" viewBox="0 0 17 17" fill="none" xmlns="http://www.w3.org/2000/svg">
  <circle cx="8.5" cy="8.5" r="8.5" fill="white"/>
  <path fill-rule="evenodd" clip-rule="evenodd" d="M8.5 3.12C5.48 3.12 3.03 5.57 3.03 8.59C3.03 11 4.6 13.05 6.77 13.78C7.04 13.83 7.14 13.66 7.14 13.52C7.14 13.39 7.13 13.05 7.13 12.6C5.61 12.93 5.29 11.87 5.29 11.87C5.04 11.24 4.68 11.07 4.68 11.07C4.18 10.73 4.72 10.74 4.72 10.74C5.27 10.78 5.56 11.31 5.56 11.31C6.05 12.15 6.84 11.91 7.15 11.77C7.2 11.42 7.34 11.17 7.5 11.03C6.29 10.89 5.01 10.42 5.01 8.33C5.01 7.73 5.22 7.24 5.58 6.86C5.52 6.72 5.33 6.16 5.63 5.41C5.63 5.41 6.09 5.26 7.14 5.97C7.58 5.85 8.05 5.79 8.51 5.79C8.97 5.79 9.44 5.85 9.88 5.97C10.93 5.26 11.39 5.41 11.39 5.41C11.69 6.16 11.5 6.72 11.44 6.86C11.79 7.24 12 7.73 12 8.33C12 10.43 10.72 10.89 9.5 11.03C9.7 11.2 9.87 11.53 9.87 12.04C9.87 12.77 9.86 13.36 9.86 13.52C9.86 13.67 9.96 13.83 10.24 13.78C12.4 13.05 13.97 11 13.97 8.59C13.97 5.57 11.52 3.12 8.5 3.12Z" fill="#242424"/>
</svg>
